<svg width="142" height="45" viewBox="0 0 142 45" fill="none" xmlns="http://www.w3.org/2000/svg">
<path d="M6.08398 17.3125C3.50586 17.3125 1.60156 16.2383 0.546875 14.2852L3.07617 12.5078C3.76953 13.6211 4.77539 14.1289 6.13281 14.1289C7.61719 14.1289 8.61328 13.5234 8.61328 12.6836C8.61328 11.5312 6.72852 10.623 5.07812 9.80273C3.31055 8.92383 1.36719 7.95703 1.36719 5.44727C1.36719 2.72266 3.67188 0.925781 6.5625 0.925781C8.71094 0.925781 10.4883 1.81445 11.2012 3.71875L8.86719 5.34961C8.39844 4.41211 7.49023 4.03125 6.61133 4.03125C5.42969 4.03125 4.55078 4.71484 4.55078 5.52539C4.55078 6.46289 5.74219 6.78516 7.54883 7.63477C10.1562 8.86523 11.7969 10.1934 11.7969 12.6152C11.7969 15.4863 9.45312 17.3125 6.08398 17.3125ZM22.5195 1.25781H25.6738V17H22.5195V10.6914H16.8652V17H13.7109V1.25781H16.8652V7.55664H22.5195V1.25781ZM38.9746 17L37.9785 14.8027H31.6797L30.6738 17H27.2559L34.7754 0.867188H34.873L42.4023 17H38.9746ZM32.9102 12.1074H36.748L34.834 7.89844L32.9102 12.1074ZM52.793 1.25781H55.9473V17H52.793V10.6914H47.1387V17H43.9844V1.25781H47.1387V7.55664H52.793V1.25781ZM73.9355 0.867188H74.1113V17H70.9473V10.1445L66.416 16.7363H66.3965L61.8555 10.1445V17H58.6914V0.867188H58.8672L66.4062 11.2676L73.9355 0.867188ZM86.3477 4.37305H80.0195V7.44922H85.4492V10.6035H80.0195V13.8555H86.3477V17H76.8555V1.25781H86.3477V4.37305ZM98.1641 4.37305H91.8359V7.44922H97.2656V10.6035H91.8359V13.8555H98.1641V17H88.6719V1.25781H98.1641V4.37305ZM112.539 17H108.672L103.662 9.55859V17H100.498L100.488 1.25781H105.625C108.564 1.25781 110.977 3.52344 110.977 6.35547C110.977 8.37695 109.756 10.1445 108.066 10.7402L112.539 17ZM103.652 4.39258V8.34766L105.684 8.35742C106.758 8.36719 107.715 7.49805 107.715 6.375C107.715 5.25195 106.748 4.39258 105.684 4.39258H103.652ZM68.7695 28.2578H71.9238V44H68.7695V37.6914H63.1152V44H59.9609V28.2578H63.1152V34.5566H68.7695V28.2578ZM85.2246 44L84.2285 41.8027H77.9297L76.9238 44H73.5059L81.0254 27.8672H81.123L88.6523 44H85.2246ZM79.1602 39.1074H82.998L81.084 34.8984L79.1602 39.1074ZM94.4629 44.3125C91.8848 44.3125 89.9805 43.2383 88.9258 41.2852L91.4551 39.5078C92.1484 40.6211 93.1543 41.1289 94.5117 41.1289C95.9961 41.1289 96.9922 40.5234 96.9922 39.6836C96.9922 38.5312 95.1074 37.623 93.457 36.8027C91.6895 35.9238 89.7461 34.957 89.7461 32.4473C89.7461 29.7227 92.0508 27.9258 94.9414 27.9258C97.0898 27.9258 98.8672 28.8145 99.5801 30.7188L97.2461 32.3496C96.7773 31.4121 95.8691 31.0312 94.9902 31.0312C93.8086 31.0312 92.9297 31.7148 92.9297 32.5254C92.9297 33.4629 94.1211 33.7852 95.9277 34.6348C98.5352 35.8652 100.176 37.1934 100.176 39.6152C100.176 42.4863 97.832 44.3125 94.4629 44.3125ZM106.807 44.3125C104.229 44.3125 102.324 43.2383 101.27 41.2852L103.799 39.5078C104.492 40.6211 105.498 41.1289 106.855 41.1289C108.34 41.1289 109.336 40.5234 109.336 39.6836C109.336 38.5312 107.451 37.623 105.801 36.8027C104.033 35.9238 102.09 34.957 102.09 32.4473C102.09 29.7227 104.395 27.9258 107.285 27.9258C109.434 27.9258 111.211 28.8145 111.924 30.7188L109.59 32.3496C109.121 31.4121 108.213 31.0312 107.334 31.0312C106.152 31.0312 105.273 31.7148 105.273 32.5254C105.273 33.4629 106.465 33.7852 108.271 34.6348C110.879 35.8652 112.52 37.1934 112.52 39.6152C112.52 42.4863 110.176 44.3125 106.807 44.3125ZM124.209 44L123.213 41.8027H116.914L115.908 44H112.49L120.01 27.8672H120.107L127.637 44H124.209ZM118.145 39.1074H121.982L120.068 34.8984L118.145 39.1074ZM138.701 28.2188H141.875V44.293H141.729L132.383 35.2012V44.0195H129.219V27.9648H129.375L138.701 37.0371V28.2188Z" fill="#245079"/>
</svg>
